<?xml version="1.0" standalone="no"?>
<!DOCTYPE svg PUBLIC "-//W3C//DTD SVG 20010904//EN"
 "http://www.w3.org/TR/2001/REC-SVG-20010904/DTD/svg10.dtd">
<svg version="1.0" xmlns="http://www.w3.org/2000/svg"
 width="300.000000pt" height="300.000000pt" viewBox="0 0 300.000000 300.000000"
 preserveAspectRatio="xMidYMid meet">
<metadata>
Created by potrace 1.11, written by Peter Selinger 2001-2013
</metadata>
<g transform="translate(0.000000,300.000000) scale(0.100000,-0.100000)"
fill="#000000" stroke="none">
<path d="M1240 2984 c-597 -109 -1055 -542 -1208 -1142 -26 -102 -27 -118 -27
-347 1 -235 2 -242 32 -355 36 -136 79 -247 135 -350 212 -388 546 -646 981
-756 137 -35 442 -45 590 -20 321 55 602 200 826 429 200 204 327 431 398 712
27 105 28 121 28 345 0 224 -1 240 -28 344 -85 335 -265 624 -512 819 -222
176 -439 276 -702 322 -110 19 -406 19 -513 -1z m588 -153 c49 -25 76 -56 104
-116 21 -45 23 -65 23 -190 0 -116 -4 -154 -23 -220 -46 -160 -118 -275 -217
-350 -58 -43 -100 -63 -244 -112 -57 -20 -114 -46 -127 -57 -13 -12 -100 -171
-194 -354 -172 -337 -289 -543 -388 -681 -74 -104 -109 -140 -160 -163 -43
-19 -43 -19 -88 2 -24 12 -49 32 -56 43 -49 93 85 361 425 847 281 402 277
395 277 450 0 27 -7 95 -16 151 -20 127 -15 243 15 320 66 171 268 362 453
429 71 26 167 26 216 1z m392 -868 c196 -32 397 -120 491 -214 78 -78 111
-151 117 -256 4 -74 2 -88 -21 -136 -53 -107 -170 -152 -291 -111 -76 26 -133
91 -205 234 -85 167 -115 212 -206 311 -120 131 -138 169 -87 187 30 11 60 9
202 -15z m-440 -347 c147 -100 269 -272 285 -401 13 -99 -39 -211 -116 -251
-57 -29 -155 -9 -201 43 -40 44 -52 93 -48 203 7 205 5 265 -14 348 -17 72
-18 85 -5 93 19 12 45 3 99 -35z"/>
</g>
</svg>
